<svg width="33" height="32" viewBox="0 0 33 32" fill="none" xmlns="http://www.w3.org/2000/svg">
<path d="M29.2061 15.3809L16.6205 15.3905L16.6301 2.80486C16.6244 2.6469 16.5576 2.49732 16.4439 2.38759C16.3301 2.27787 16.1782 2.21655 16.0201 2.21655C15.8621 2.21655 15.7102 2.27787 15.5964 2.38759C15.4826 2.49732 15.4159 2.6469 15.4101 2.80486L15.4005 15.3913L2.81414 15.4001C2.65618 15.4058 2.5066 15.4726 2.39687 15.5863C2.28714 15.7001 2.22583 15.852 2.22583 16.0101C2.22583 16.1681 2.28714 16.32 2.39687 16.4338C2.5066 16.5476 2.65618 16.6143 2.81414 16.6201L15.3997 16.6105L15.3901 29.1961C15.3901 29.3593 15.4557 29.5161 15.5685 29.6265C15.654 29.7115 15.7626 29.7694 15.8808 29.7928C15.9991 29.8163 16.1216 29.8042 16.233 29.7582C16.3444 29.7122 16.4397 29.6343 16.507 29.5343C16.5742 29.4343 16.6104 29.3166 16.6109 29.1961L16.6205 16.6105L29.2061 16.6009C29.2881 16.6038 29.3698 16.5902 29.4464 16.5609C29.523 16.5316 29.5929 16.4872 29.652 16.4302C29.711 16.3733 29.758 16.305 29.79 16.2295C29.8221 16.1541 29.8386 16.0729 29.8386 15.9909C29.8386 15.9088 29.8221 15.8277 29.79 15.7522C29.758 15.6767 29.711 15.6084 29.652 15.5515C29.5929 15.4946 29.523 15.4501 29.4464 15.4208C29.3698 15.3915 29.2881 15.3779 29.2061 15.3809Z" fill="#1D1D1D"/>
</svg>
