<svg width="24" height="24" viewBox="0 0 24 24" fill="none" xmlns="http://www.w3.org/2000/svg">
<path d="M23.4503 11.4522L12.5113 11.4606L12.5197 0.511794C12.5147 0.374378 12.4567 0.244251 12.3578 0.148795C12.2589 0.05334 12.1269 0 11.9895 0C11.8521 0 11.7201 0.05334 11.6212 0.148795C11.5223 0.244251 11.4643 0.374378 11.4593 0.511794L11.451 11.4613L0.511333 11.4689C0.374041 11.4739 0.244031 11.532 0.148661 11.631C0.0532918 11.7299 0 11.8621 0 11.9996C0 12.1371 0.0532918 12.2692 0.148661 12.3682C0.244031 12.4672 0.374041 12.5253 0.511333 12.5303L11.4503 12.5219L11.4419 23.4707C11.4419 23.6127 11.4989 23.7491 11.597 23.8451C11.6712 23.9191 11.7657 23.9694 11.8684 23.9898C11.9712 24.0102 12.0777 23.9998 12.1745 23.9598C12.2713 23.9197 12.3542 23.852 12.4126 23.7649C12.4711 23.6779 12.5025 23.5755 12.503 23.4707L12.5113 12.5219L23.4503 12.5136C23.5215 12.5161 23.5925 12.5043 23.6591 12.4788C23.7257 12.4533 23.7864 12.4146 23.8378 12.3651C23.8891 12.3156 23.9299 12.2562 23.9578 12.1905C23.9856 12.1249 24 12.0542 24 11.9829C24 11.9115 23.9856 11.8409 23.9578 11.7752C23.9299 11.7096 23.8891 11.6502 23.8378 11.6007C23.7864 11.5511 23.7257 11.5125 23.6591 11.487C23.5925 11.4615 23.5215 11.4496 23.4503 11.4522Z" fill="#1D1D1D"/>
</svg>
